<svg xmlns="http://www.w3.org/2000/svg" width="48" height="48" viewBox="0 0 24 24">
  <g id="Слой_4" data-name="Слой 4" transform="translate(2 2)">
    <path id="Контур_6305" data-name="Контур 6305" d="M37.537,33.556a1.58,1.58,0,0,0-.81-.432l-3.481-.692a1.576,1.576,0,0,0-1.422.432l-1.35,1.35a1.587,1.587,0,0,1-1.925.237,14.264,14.264,0,0,1-5-5,1.585,1.585,0,0,1,.237-1.929c.434-.436.958-.958,1.35-1.35a1.578,1.578,0,0,0,.43-1.422l-.69-3.479A1.579,1.579,0,0,0,23.328,20H21.591a1.573,1.573,0,0,0-1.575,1.5,15.774,15.774,0,0,0,1.768,8.026,15.587,15.587,0,0,0,1.251,2.014,16.171,16.171,0,0,0,1.583,1.844,15.741,15.741,0,0,0,11.884,4.6A1.574,1.574,0,0,0,38,36.407V34.67A1.57,1.57,0,0,0,37.537,33.556Z" transform="translate(-18.998 -19)" fill="#ffffff"/>
    <rect id="Прямоугольник_3685" data-name="Прямоугольник 3685" width="24" height="24" transform="translate(-2 -2)" fill="none"/>
  </g>
</svg>
